<?xml version="1.0" standalone="no"?>
<!DOCTYPE svg PUBLIC "-//W3C//DTD SVG 20010904//EN"
 "http://www.w3.org/TR/2001/REC-SVG-20010904/DTD/svg10.dtd">
<svg version="1.0" xmlns="http://www.w3.org/2000/svg"
 width="74.000000pt" height="74.000000pt" viewBox="0 0 74.000000 74.000000"
 preserveAspectRatio="xMidYMid meet">
<metadata>
Created by potrace 1.14, written by Peter Selinger 2001-2017
</metadata>
<g transform="translate(0.000000,74.000000) scale(0.100000,-0.100000)"
fill="#000000" stroke="none">
<path d="M346 705 c-15 -14 -23 -25 -19 -25 4 0 -7 -10 -24 -21 -18 -12 -30
-25 -27 -30 3 -5 -1 -9 -9 -9 -7 0 -19 -11 -27 -24 -8 -16 -18 -22 -28 -19
-11 5 -13 3 -7 -7 5 -9 4 -11 -4 -6 -6 4 -9 11 -6 15 2 5 -15 9 -40 9 -46 1
-64 -10 -47 -31 5 -7 9 -29 7 -51 -2 -31 -10 -46 -45 -77 -24 -22 -40 -39 -35
-39 4 0 3 -6 -2 -12 -11 -14 -11 -74 0 -84 4 -4 77 63 163 149 86 87 160 157
165 157 6 0 8 4 5 9 -4 5 0 11 6 13 7 3 35 -16 61 -41 56 -53 76 -63 96 -47
12 9 13 8 6 -3 -6 -11 -4 -13 9 -8 10 4 24 7 33 7 9 0 2 13 -20 34 -20 19 -33
37 -30 40 4 3 2 6 -4 6 -14 0 -53 35 -53 49 0 6 -4 11 -10 11 -5 0 -22 14 -37
30 -32 36 -42 37 -77 5z"/>
<path d="M433 498 c1 -7 16 -27 33 -43 29 -30 30 -34 24 -91 -4 -32 -5 -63 -2
-69 3 -5 -2 -4 -11 4 -15 12 -21 9 -18 -11 0 -5 -3 -8 -7 -8 -5 0 -19 -8 -30
-19 -21 -18 -87 -22 -111 -7 -5 4 -12 2 -15 -3 -7 -10 -25 -9 -43 2 -6 4 -14
3 -17 -2 -7 -10 -25 -9 -43 2 -6 4 -14 3 -17 -1 -5 -9 -78 -7 -102 2 -17 7
-11 -53 7 -65 8 -5 11 -9 7 -9 -12 0 50 -60 62 -60 6 0 9 -4 6 -9 -3 -5 6 -12
19 -15 16 -4 23 -11 19 -18 -5 -7 -2 -9 9 -5 9 3 29 0 44 -8 28 -14 188 -19
208 -6 6 3 15 6 20 6 6 1 9 6 8 11 -1 6 4 11 12 11 8 0 12 -5 8 -10 -11 -17
52 27 88 63 46 46 69 80 69 104 0 10 8 25 18 33 10 8 11 11 2 7 -13 -7 -13 -5
-2 9 13 15 19 131 9 167 -13 49 -13 49 -138 49 -89 1 -118 -2 -116 -11z"/>
<path d="M236 450 c-1 -3 -2 -18 -2 -35 1 -30 2 -31 60 -26 8 1 13 9 11 19 -2
9 -4 24 -4 32 -1 10 -12 15 -32 15 -17 1 -31 -2 -33 -5z"/>
<path d="M325 446 c-32 -23 -6 -64 37 -58 16 3 27 7 24 9 -3 3 0 17 5 31 6 15
7 24 4 20 -4 -4 -17 -3 -30 2 -15 6 -29 5 -40 -4z"/>
<path d="M249 369 c-12 -7 -22 -59 -11 -60 4 0 18 -2 30 -5 18 -3 25 1 30 18
5 21 5 21 13 1 5 -13 17 -20 37 -21 25 0 31 4 35 26 6 32 -7 51 -31 47 -9 -2
-23 -4 -30 -4 -7 -1 -10 -5 -7 -11 3 -5 1 -10 -5 -10 -6 0 -13 6 -16 13 -5 15
-27 18 -45 6z"/>
</g>
</svg>
