<svg width="125" height="24" viewBox="0 0 125 24" fill="none" xmlns="http://www.w3.org/2000/svg">
<path d="M11.8098 0.58541C11.8697 0.401148 12.1303 0.401148 12.1902 0.58541L14.6493 8.1536C14.676 8.236 14.7528 8.2918 14.8395 8.2918H22.7971C22.9909 8.2918 23.0714 8.53972 22.9147 8.6536L16.4768 13.331C16.4067 13.3819 16.3774 13.4722 16.4042 13.5546L18.8632 21.1228C18.9231 21.3071 18.7122 21.4603 18.5554 21.3464L12.1176 16.669C12.0475 16.6181 11.9525 16.6181 11.8824 16.669L5.44456 21.3464C5.28781 21.4603 5.07692 21.3071 5.13679 21.1228L7.59584 13.5546C7.62262 13.4722 7.59329 13.3819 7.52319 13.331L1.0853 8.6536C0.928559 8.53972 1.00911 8.2918 1.20286 8.2918H9.16052C9.24717 8.2918 9.32396 8.236 9.35073 8.1536L11.8098 0.58541Z" fill="#FFC239"/>
<path d="M37.3106 0.559725C37.3719 0.37855 37.6281 0.37855 37.6894 0.559725L40.2604 8.15591C40.2879 8.23713 40.3641 8.2918 40.4499 8.2918H48.7519C48.9476 8.2918 49.0268 8.54387 48.8663 8.65584L42.1641 13.3305C42.0911 13.3814 42.0605 13.4744 42.089 13.5587L44.6523 21.1321C44.7142 21.3149 44.5068 21.4707 44.3485 21.3603L37.6144 16.6634C37.5457 16.6154 37.4543 16.6154 37.3856 16.6634L30.6515 21.3603C30.4932 21.4707 30.2858 21.3149 30.3477 21.1321L32.911 13.5587C32.9395 13.4744 32.9089 13.3814 32.8359 13.3305L26.1337 8.65584C25.9732 8.54387 26.0524 8.2918 26.2481 8.2918H34.5501C34.6359 8.2918 34.7121 8.23714 34.7396 8.15591L37.3106 0.559725Z" fill="#FFC239"/>
<path d="M62.3106 0.559725C62.3719 0.37855 62.6281 0.37855 62.6894 0.559725L65.2604 8.15591C65.2879 8.23713 65.3641 8.2918 65.4499 8.2918H73.7519C73.9476 8.2918 74.0268 8.54387 73.8663 8.65584L67.1641 13.3305C67.0911 13.3814 67.0605 13.4744 67.089 13.5587L69.6523 21.1321C69.7142 21.3149 69.5068 21.4707 69.3485 21.3603L62.6144 16.6634C62.5457 16.6154 62.4543 16.6154 62.3856 16.6634L55.6515 21.3603C55.4932 21.4707 55.2858 21.3149 55.3477 21.1321L57.911 13.5587C57.9395 13.4744 57.9089 13.3814 57.8359 13.3305L51.1337 8.65584C50.9732 8.54387 51.0524 8.2918 51.2481 8.2918H59.5501C59.6359 8.2918 59.7121 8.23714 59.7396 8.15591L62.3106 0.559725Z" fill="#FFC239"/>
<path d="M87.3106 0.559725C87.3719 0.37855 87.6281 0.37855 87.6894 0.559725L90.2604 8.15591C90.2879 8.23713 90.3641 8.2918 90.4499 8.2918H98.7519C98.9476 8.2918 99.0268 8.54387 98.8663 8.65584L92.1641 13.3305C92.0911 13.3814 92.0605 13.4744 92.089 13.5587L94.6523 21.1321C94.7142 21.3149 94.5068 21.4707 94.3485 21.3603L87.6144 16.6634C87.5457 16.6154 87.4543 16.6154 87.3856 16.6634L80.6515 21.3603C80.4932 21.4707 80.2858 21.3149 80.3477 21.1321L82.911 13.5587C82.9395 13.4744 82.9089 13.3814 82.8359 13.3305L76.1337 8.65584C75.9732 8.54387 76.0524 8.2918 76.2481 8.2918H84.5501C84.6359 8.2918 84.7121 8.23714 84.7396 8.15591L87.3106 0.559725Z" fill="#FFC239"/>
<path d="M112.81 0.58541C112.87 0.401148 113.13 0.401148 113.19 0.58541L115.649 8.1536C115.676 8.236 115.753 8.2918 115.839 8.2918H123.797C123.991 8.2918 124.071 8.53972 123.915 8.6536L117.477 13.331C117.407 13.3819 117.377 13.4722 117.404 13.5546L119.863 21.1228C119.923 21.3071 119.712 21.4603 119.555 21.3464L113.118 16.669C113.047 16.6181 112.953 16.6181 112.882 16.669L106.445 21.3464C106.288 21.4603 106.077 21.3071 106.137 21.1228L108.596 13.5546C108.623 13.4722 108.593 13.3819 108.523 13.331L102.085 8.6536C101.929 8.53972 102.009 8.2918 102.203 8.2918H110.161C110.247 8.2918 110.324 8.236 110.351 8.1536L112.81 0.58541Z" fill="#FFC239"/>
</svg>
